<svg xmlns="http://www.w3.org/2000/svg" viewBox="0 0 64 64" role="img" aria-label="Golden Years Yoga">
  <defs>
    <linearGradient id="sun" x1="0" y1="0" x2="0" y2="1">
      <stop offset="0" stop-color="oklch(0.84 0.13 78)"/>
      <stop offset="1" stop-color="oklch(0.66 0.17 33)"/>
    </linearGradient>
  </defs>
  <rect width="64" height="64" rx="15" fill="oklch(0.46 0.092 215)"/>
  <!-- sun -->
  <circle cx="32" cy="30" r="13" fill="url(#sun)"/>
  <g stroke="url(#sun)" stroke-width="2.6" stroke-linecap="round">
    <line x1="32" y1="6" x2="32" y2="11"/>
    <line x1="15" y1="13" x2="18.5" y2="16.5"/>
    <line x1="49" y1="13" x2="45.5" y2="16.5"/>
    <line x1="8" y1="30" x2="13" y2="30"/>
    <line x1="56" y1="30" x2="51" y2="30"/>
  </g>
  <!-- calm seated figure -->
  <g fill="oklch(0.975 0.01 210)">
    <circle cx="32" cy="30" r="4.6"/>
    <path d="M32 35c-7 0-12 4.6-13.4 11.4-.4 2 1.1 3.6 3.1 3.6h20.6c2 0 3.5-1.6 3.1-3.6C44 39.6 39 35 32 35Z"/>
  </g>
  <!-- ground line -->
  <rect x="14" y="52" width="36" height="3.4" rx="1.7" fill="oklch(0.975 0.01 210)" opacity="0.55"/>
</svg>
